<svg xmlns="http://www.w3.org/2000/svg" viewBox="0 0 1200 700" font-family="Segoe UI, Arial, sans-serif">
  <!-- Ямастер Чек — скриншот-схема: Сканирование. ООО «Ямастер», ymaster.ru -->
  <defs>
    <linearGradient id="g1" x1="0" y1="0" x2="1" y2="0">
      <stop offset="0" stop-color="#6366f1"/><stop offset="1" stop-color="#22d3ee"/>
    </linearGradient>
  </defs>
  <rect width="1200" height="700" fill="#0b1020" rx="14"/>

  <!-- Сайдбар (упрощённо) -->
  <rect x="0" y="0" width="228" height="700" fill="#0a0e1e" stroke="#1c2340"/>
  <circle cx="34" cy="38" r="15" fill="url(#g1)"/>
  <text x="58" y="34" fill="#e8ecf8" font-size="15" font-weight="800">Ямастер <tspan fill="#22d3ee">Чек</tspan></text>
  <g font-size="13">
    <text x="34" y="109" fill="#9aa3bd">▦ Дашборд</text>
    <rect x="12" y="124" width="204" height="40" rx="10" fill="rgba(99,102,241,.22)"/>
    <text x="34" y="149" fill="#ffffff" font-weight="700">⌗ Сканирование</text>
    <text x="34" y="189" fill="#9aa3bd">☰ Чеки</text>
    <text x="34" y="229" fill="#9aa3bd">⬇ Выгрузка в 1С</text>
    <text x="34" y="269" fill="#9aa3bd">⚙ Настройки</text>
  </g>

  <text x="258" y="46" fill="#e8ecf8" font-size="18" font-weight="750">Сканирование чеков</text>

  <!-- Камера -->
  <rect x="258" y="76" width="640" height="480" rx="14" fill="#131a38" stroke="#232c52"/>
  <text x="280" y="104" fill="#9aa3bd" font-size="11" font-weight="750">КАМЕРА УСТРОЙСТВА</text>
  <rect x="280" y="118" width="596" height="360" rx="10" fill="#05070f"/>
  <!-- чек в кадре -->
  <g transform="translate(440,160)">
    <rect width="250" height="290" rx="6" fill="#e9eef7"/>
    <rect x="20" y="24" width="210" height="8" rx="4" fill="#20263f"/>
    <rect x="20" y="44" width="160" height="6" rx="3" fill="#a9b3cd"/>
    <rect x="20" y="58" width="190" height="6" rx="3" fill="#a9b3cd"/>
    <g transform="translate(55,84)">
      <rect width="140" height="140" fill="#ffffff"/>
      <rect x="8" y="8" width="36" height="36" fill="none" stroke="#111" stroke-width="10"/>
      <rect x="96" y="8" width="36" height="36" fill="none" stroke="#111" stroke-width="10"/>
      <rect x="8" y="96" width="36" height="36" fill="none" stroke="#111" stroke-width="10"/>
      <rect x="56" y="8" width="14" height="14" fill="#111"/>
      <rect x="76" y="30" width="14" height="14" fill="#111"/>
      <rect x="56" y="56" width="14" height="14" fill="#111"/>
      <rect x="96" y="56" width="14" height="14" fill="#111"/>
      <rect x="56" y="80" width="14" height="14" fill="#111"/>
      <rect x="96" y="96" width="14" height="14" fill="#111"/>
      <rect x="56" y="112" width="14" height="14" fill="#111"/>
      <rect x="76" y="96" width="14" height="14" fill="#111"/>
    </g>
    <rect x="20" y="240" width="120" height="6" rx="3" fill="#a9b3cd"/>
    <rect x="20" y="254" width="160" height="6" rx="3" fill="#a9b3cd"/>
  </g>
  <!-- затемнение + рамка сканера -->
  <rect x="280" y="118" width="596" height="360" fill="rgba(3,6,16,.55)"/>
  <rect x="400" y="170" width="360" height="256" rx="14" fill="none" stroke="rgba(3,6,16,0)" stroke-width="0"/>
  <mask id="m"><rect x="280" y="118" width="596" height="360" fill="#fff"/><rect x="412" y="182" width="332" height="230" rx="14" fill="#000"/></mask>
  <rect x="280" y="118" width="596" height="360" fill="rgba(3,6,16,.55)" mask="url(#m)"/>
  <g stroke="#22d3ee" stroke-width="4" fill="none">
    <path d="M412 216 v-20 a14 14 0 0 1 14 -14 h20"/>
    <path d="M724 216 v-20 a14 14 0 0 0 -14 -14 h-20"/>
    <path d="M412 378 v20 a14 14 0 0 0 14 14 h20"/>
    <path d="M724 378 v20 a14 14 0 0 1 -14 14 h-20"/>
  </g>
  <rect x="430" y="290" width="296" height="4" rx="2" fill="#22d3ee" opacity="0.9"/>
  <text x="578" y="352" text-anchor="middle" fill="#9aa3bd" font-size="11" opacity="0">.</text>
  <text x="578" y="452" text-anchor="middle" fill="#67e8f9" font-size="12" font-weight="700">✓ QR распознан: ФН 7281440300724321 · ФД 77890</text>

  <!-- кнопки -->
  <g font-size="12.5" font-weight="700">
    <rect x="280" y="492" width="140" height="38" rx="9" fill="url(#g1)"/>
    <text x="350" y="516" text-anchor="middle" fill="#fff">▶ Остановить</text>
    <rect x="432" y="492" width="160" height="38" rx="9" fill="#1b2347" stroke="#2b3563"/>
    <text x="512" y="516" text-anchor="middle" fill="#e8ecf8">🖼 Загрузить фото</text>
    <rect x="604" y="492" width="150" height="38" rx="9" fill="#1b2347" stroke="#2b3563"/>
    <text x="679" y="516" text-anchor="middle" fill="#e8ecf8">📋 Вставить QR</text>
    <rect x="766" y="492" width="110" height="38" rx="9" fill="#1b2347" stroke="#2b3563"/>
    <text x="821" y="516" text-anchor="middle" fill="#e8ecf8">⌨ Вручную</text>
  </g>

  <!-- Правая колонка -->
  <rect x="918" y="76" width="252" height="480" rx="14" fill="#131a38" stroke="#232c52"/>
  <text x="938" y="104" fill="#9aa3bd" font-size="11" font-weight="750">ПОСЛЕДНИЕ СКАНЫ</text>
  <g transform="translate(938,120)" font-size="11">
    <rect width="212" height="52" rx="10" fill="#101733" stroke="#232c52"/>
    <circle cx="24" cy="26" r="12" fill="rgba(52,211,153,.16)"/><text x="24" y="30" text-anchor="middle">✅</text>
    <text x="44" y="22" fill="#e8ecf8" font-weight="700">3 420,00 ₽</text>
    <text x="44" y="38" fill="#6b7494" font-family="Consolas, monospace" font-size="9.5">ФН 728144…21 · ФД 77890</text>
  </g>
  <g transform="translate(938,182)" font-size="11">
    <rect width="212" height="52" rx="10" fill="#101733" stroke="#232c52"/>
    <circle cx="24" cy="26" r="12" fill="rgba(251,191,36,.16)"/><text x="24" y="30" text-anchor="middle">⚠️</text>
    <text x="44" y="22" fill="#e8ecf8" font-weight="700">990,00 ₽ · дубль</text>
    <text x="44" y="38" fill="#6b7494" font-family="Consolas, monospace" font-size="9.5">ФН 728144…11 · ФД 11111</text>
  </g>
  <g transform="translate(938,244)" font-size="11">
    <rect width="212" height="52" rx="10" fill="#101733" stroke="#232c52"/>
    <circle cx="24" cy="26" r="12" fill="rgba(52,211,153,.16)"/><text x="24" y="30" text-anchor="middle">✅</text>
    <text x="44" y="22" fill="#e8ecf8" font-weight="700">150,50 ₽</text>
    <text x="44" y="38" fill="#6b7494" font-family="Consolas, monospace" font-size="9.5">ФН 728144…22 · ФД 22222</text>
  </g>

  <text x="938" y="330" fill="#9aa3bd" font-size="11" font-weight="750">КАК ЭТО РАБОТАЕТ</text>
  <g font-size="10.5" fill="#9aa3bd">
    <circle cx="946" cy="352" r="9" fill="url(#g1)"/><text x="946" y="356" text-anchor="middle" fill="#fff" font-size="9" font-weight="800">1</text>
    <text x="962" y="356">Отсканируйте QR камерой</text>
    <circle cx="946" cy="382" r="9" fill="url(#g1)"/><text x="946" y="386" text-anchor="middle" fill="#fff" font-size="9" font-weight="800">2</text>
    <text x="962" y="386">Разбор 54-ФЗ, отсев дублей</text>
    <circle cx="946" cy="412" r="9" fill="url(#g1)"/><text x="946" y="416" text-anchor="middle" fill="#fff" font-size="9" font-weight="800">3</text>
    <text x="962" y="416">Автопроверка в API ФНС</text>
    <circle cx="946" cy="442" r="9" fill="url(#g1)"/><text x="946" y="446" text-anchor="middle" fill="#fff" font-size="9" font-weight="800">4</text>
    <text x="962" y="446">Выгрузка в 1С по маппингу</text>
  </g>

  <text x="600" y="668" text-anchor="middle" fill="#4a5478" font-size="10.5">Скриншот-схема веб-клиента «Ямастер Чек» · © ООО «Ямастер», 2026 · ymaster.ru</text>
</svg>
